<svg id="visual" viewBox="0 0 900 600" width="900" height="600" xmlns="http://www.w3.org/2000/svg" xmlns:xlink="http://www.w3.org/1999/xlink" version="1.1"><rect x="0" y="0" width="900" height="600" fill="#001220"></rect><defs><linearGradient id="grad1_0" x1="33.3%" y1="100%" x2="100%" y2="0%"><stop offset="20%" stop-color="#001220" stop-opacity="1"></stop><stop offset="80%" stop-color="#001220" stop-opacity="1"></stop></linearGradient></defs><defs><linearGradient id="grad2_0" x1="0%" y1="100%" x2="66.7%" y2="0%"><stop offset="20%" stop-color="#001220" stop-opacity="1"></stop><stop offset="80%" stop-color="#001220" stop-opacity="1"></stop></linearGradient></defs><g transform="translate(900, 600)"><path d="M-351.5 0C-326.1 -51.8 -300.6 -103.5 -274.5 -158.5C-248.4 -213.5 -221.6 -271.7 -175.8 -304.4C-129.9 -337.2 -65 -344.3 0 -351.5L0 0Z" fill="#fca800"></path></g><g transform="translate(0, 0)"><path d="M351.5 0C339.5 59.5 327.4 119 299.6 173C271.9 227 228.3 275.6 175.8 304.4C123.2 333.3 61.6 342.4 0 351.5L0 0Z" fill="#fca800"></path></g></svg>